<?xml version="1.0" encoding="UTF-8"?>
<svg width="284px" height="31px" viewBox="0 0 284 31" version="1.1" xmlns="http://www.w3.org/2000/svg" xmlns:xlink="http://www.w3.org/1999/xlink">
    <title>Logos/OptikerBode</title>
    <g id="Logos/OptikerBode" stroke="none" stroke-width="1" fill="none" fill-rule="evenodd">
        <path d="M22.130963,22.5622222 C20.3129417,24.6228024 17.6973877,25.8031792 14.9494444,25.8031792 C12.2015012,25.8031792 9.58594722,24.6228024 7.76792593,22.5622222 C3.69661395,18.4608364 3.69661395,11.8430155 7.76792593,7.74162963 C9.57330376,5.66383303 12.1885232,4.46760193 14.9410817,4.46051529 C17.6936401,4.45349142 20.3149575,5.63630041 22.130963,7.70481481 C24.1162316,9.66700529 25.2335045,12.3421957 25.2335045,15.1335185 C25.2335045,17.9248413 24.1162316,20.6000317 22.130963,22.5622222 M14.9520741,0.0420740741 C11.0812593,0.0420740741 7.6417037,1.55674074 4.66496296,4.62814815 C1.68822222,7.69955556 0.241925926,11.1548889 0.241925926,15.0677778 C0.196088957,19.0652746 1.77748899,22.9096144 4.62288889,25.7177778 C7.5522963,28.7102963 10.9971111,30.224963 14.9520741,30.224963 C18.907037,30.224963 22.3465926,28.7102963 25.276,25.7177778 C28.1259972,22.9439651 29.7230653,19.1288523 29.6993043,15.1519259 C29.6993043,11.196963 28.2106667,7.70481481 25.2339259,4.63340741 C22.2571852,1.562 18.8597037,0.0473333333 14.9520741,0.0473333333" id="Shape" fill="#FEDB00" fill-rule="nonzero"></path>
        <path d="M45.6451111,12.9640741 L39.6916296,12.9640741 L39.6916296,5.21718519 L45.6451111,5.21718519 C47.063001,5.16492995 48.396132,5.89156252 49.1205926,7.11152123 C49.8450531,8.33147994 49.8450531,9.84977932 49.1205926,11.069738 C48.396132,12.2896967 47.063001,13.0163293 45.6451111,12.9640741 M45.6451111,0.799407407 L37.4354074,0.799407407 C36.8467819,0.802190491 36.2833713,1.03869356 35.8691228,1.45688724 C35.4548744,1.87508091 35.2237222,2.4407079 35.2264622,3.02933333 L35.2264622,27.3165926 C35.2223209,27.9061264 35.4528532,28.4731063 35.8672531,28.8924396 C36.2816531,29.3117729 36.8458652,29.5489987 37.4354074,29.5517778 C38.6733151,29.5517778 39.6800874,28.5544465 39.6916296,27.3165926 L39.6916296,17.3818519 L45.6451111,17.3818519 C47.8529669,17.4083412 49.9783046,16.543797 51.5407407,14.9836296 C53.1310716,13.4440077 54.0288989,11.325168 54.0288989,9.11166667 C54.0288989,6.89816537 53.1310716,4.77932563 51.5407407,3.2397037 C50.010831,1.64245995 47.8827575,0.757669559 45.6714074,0.799407407" id="Shape" fill="#FEDB00" fill-rule="nonzero"></path>
        <path d="M74.6814815,0.841481481 L59.8503704,0.841481481 C58.6165402,0.844273782 57.6137846,1.83765782 57.5994074,3.07140741 C57.6167224,4.29305025 58.6181424,5.27096268 59.8398519,5.25925926 L65.0254815,5.25925926 L65.0254815,27.3481481 C65.0398587,28.5818977 66.0426143,29.5752818 67.2764444,29.5780741 C67.8655049,29.5766898 68.429732,29.3406328 68.844283,28.9221336 C69.2588341,28.5036344 69.4895326,27.9371953 69.4853333,27.3481481 L69.4853333,5.25925926 L74.6814815,5.25925926 C75.2710259,5.26909823 75.8402544,5.04394036 76.2635475,4.63347432 C76.6868406,4.22300829 76.9294025,3.66097547 76.9377037,3.07140741 C76.9232995,1.83561174 75.9173611,0.841481481 74.6814815,0.841481481" id="Path" fill="#FEDB00" fill-rule="nonzero"></path>
        <path d="M84.6740741,0.84125369 C84.0854332,0.833052671 83.5175594,1.05883655 83.0954089,1.46915107 C82.6732583,1.8794656 82.4314209,2.44069081 82.4231111,3.02933333 L82.4231111,27.3481481 C82.4314209,27.9367907 82.6732583,28.4980159 83.0954089,28.9083304 C83.5175594,29.3186449 84.0854332,29.5444288 84.6740741,29.5362278 C85.2583893,29.5430423 85.8211257,29.31548 86.2363012,28.9042585 C86.6514767,28.493037 86.8844135,27.932504 86.8829697,27.3481481 L86.8829697,3.02933333 C86.8844135,2.44497751 86.6514767,1.88444445 86.2363012,1.47322297 C85.8211257,1.06200149 85.2583893,0.834439228 84.6740741,0.84125369" id="Path" fill="#FEDB00" fill-rule="nonzero"></path>
        <path d="M114.162741,1.47259259 C113.748722,1.04587776 113.179519,0.805055188 112.584963,0.805055188 C111.990407,0.805055188 111.421204,1.04587776 111.007185,1.47259259 L99.4,13.0061481 L98.8740741,13.0061481 L98.8740741,3.01355556 C98.8657729,2.42398749 98.623211,1.86195468 98.1999179,1.45148864 C97.7766248,1.04102261 97.2073963,0.815864731 96.6178519,0.825703704 C96.0335367,0.81866145 95.4708003,1.04622371 95.0556247,1.45744519 C94.6404492,1.86866667 94.4075124,2.42919973 94.4089562,3.01355556 L94.4089562,27.3481481 C94.4075301,27.932977 94.640301,28.4940356 95.0553182,28.9060885 C95.4703355,29.3181413 96.0330483,29.5468844 96.6178519,29.5412593 C97.8260834,29.5299542 98.8043956,28.5563118 98.8214815,27.3481481 L98.8214815,17.4239259 L99.3474074,17.4239259 L111.017704,28.9259259 C112.290444,30.3143704 114.925333,29.2625185 114.799111,27.3481481 C114.80729,26.776647 114.576636,26.2276526 114.162741,25.8334815 L103.44963,15.194 L114.162741,4.58607407 C114.591249,4.18167796 114.834117,3.61853264 114.834117,3.02933333 C114.834117,2.44013403 114.591249,1.8769887 114.162741,1.47259259" id="Path" fill="#FEDB00" fill-rule="nonzero"></path>
        <path d="M153.186444,12.9640741 L147.259259,12.9640741 L147.259259,5.25925926 L153.212741,5.25925926 C154.623022,5.20714265 155.949064,5.92979588 156.66968,7.14318878 C157.390297,8.35658168 157.390297,9.86675165 156.66968,11.0801446 C155.949064,12.2935375 154.623022,13.0161907 153.212741,12.9640741 M161.585481,9.09325926 C161.633062,6.8800985 160.73605,4.75136971 159.118889,3.2397037 C157.563551,1.66239326 155.427424,0.795007818 153.212741,0.841481481 L145.024074,0.841481481 C144.435433,0.833052671 143.867559,1.05883655 143.445409,1.46915107 C143.023258,1.8794656 142.781421,2.44069081 142.773111,3.02933333 L142.773111,27.3481481 C142.80449,28.5686709 143.803148,29.5416626 145.024074,29.5413603 C145.611311,29.5468652 146.17672,29.3189491 146.595904,28.9076553 C147.015088,28.4963615 147.253706,27.9353851 147.259259,27.3481481 L147.259259,17.3555556 L147.727333,17.3555556 L157.378074,28.7260741 C157.796326,29.256603 158.44392,29.5539874 159.118889,29.5254815 C160.333656,29.4891917 161.305866,28.5054076 161.327778,27.2902963 C161.315996,26.7762681 161.120032,26.2835587 160.775556,25.9018519 L153.523037,17.3818519 C155.682667,17.3352076 157.733787,16.4261238 159.218815,14.8574074 C160.756738,13.3298653 161.60242,11.2394145 161.559185,9.07222222" id="Shape" fill="#FEDB00" fill-rule="nonzero"></path>
        <path d="M193.351407,25.1287407 L185.125926,25.1287407 L185.125926,17.3818519 L193.33037,17.3818519 C194.74826,17.3295966 196.081391,18.0562292 196.805852,19.2761879 C197.530312,20.4961466 197.530312,22.014446 196.805852,23.2344047 C196.081391,24.4543634 194.74826,25.180996 193.33037,25.1287407 M185.125926,5.21718519 L191.079407,5.21718519 C192.497297,5.16492995 193.830428,5.89156252 194.554889,7.11152123 C195.279349,8.33147994 195.279349,9.84977932 194.554889,11.069738 C193.830428,12.2896967 192.497297,13.0163293 191.079407,12.9640741 L185.125926,12.9640741 L185.125926,5.21718519 Z M197.748148,14.2 C198.895378,12.7530268 199.510028,10.9554997 199.488963,9.10903704 C199.536543,6.89587627 198.639532,4.76714749 197.02237,3.25548148 C195.482982,1.6497928 193.340041,0.764374787 191.116222,0.815185185 L182.938074,0.815185185 C181.704244,0.817977486 180.701488,1.81136153 180.687111,3.04511111 L180.687111,27.3323704 C180.698631,28.5681772 181.702217,29.5647285 182.938074,29.5675556 L193.351407,29.5675556 C195.573672,29.6019496 197.711939,28.7192487 199.262815,27.1272593 C200.863197,25.6043737 201.755351,23.4826466 201.724148,21.2737037 C201.725641,18.3831026 200.218276,15.7013483 197.748148,14.2" id="Shape" fill="#FEDB00" fill-rule="nonzero"></path>
        <path d="M226.958074,22.5622222 C225.138182,24.6214811 222.522117,25.8007844 219.773926,25.8007844 C217.025735,25.8007844 214.40967,24.6214811 212.589778,22.5622222 C208.518466,18.4608364 208.518466,11.8430155 212.589778,7.74162963 C214.394565,5.65670159 217.016358,4.45904476 219.773926,4.45985144 C222.52283,4.46283109 225.138526,5.64429815 226.958074,7.70481481 C228.943343,9.66700529 230.060616,12.3421957 230.060616,15.1335185 C230.060616,17.9248413 228.943343,20.6000317 226.958074,22.5622222 M219.773926,0.0420740741 C215.90837,0.0420740741 212.463556,1.55674074 209.486815,4.62814815 C206.510074,7.69955556 205.069037,11.1548889 205.069037,15.0677778 C205.01816,19.0652026 206.59818,22.9108063 209.444741,25.7177778 C212.379407,28.7102963 215.818963,30.224963 219.773926,30.224963 C223.728889,30.224963 227.168444,28.7102963 230.103111,25.7177778 C232.949635,22.9420309 234.544471,19.1277171 234.521147,15.1519259 C234.521147,11.196963 233.032519,7.70481481 230.061037,4.63340741 C227.089556,1.562 223.681556,0.0473333333 219.773926,0.0473333333" id="Shape" fill="#FEDB00" fill-rule="nonzero"></path>
        <path d="M255.568444,22.2256296 C253.698835,24.1242522 251.132689,25.1735209 248.468444,25.1287407 L244.02963,25.1287407 L244.02963,5.21718519 L248.489481,5.21718519 C251.154853,5.17192482 253.721817,6.2234297 255.589481,8.12555556 C257.508627,9.97071967 258.572077,12.5321489 258.524148,15.194 C258.595257,17.8494679 257.527215,20.4085567 255.589481,22.2256296 M248.489481,0.799407407 L241.75763,0.799407407 C241.168091,0.800797793 240.603329,1.03668697 240.187944,1.45503216 C239.772559,1.87337734 239.540686,2.43979984 239.543456,3.02933333 L239.543456,27.3165926 C239.56551,28.5336799 240.540805,29.5182417 241.75763,29.5517778 L248.468444,29.5517778 C252.316958,29.6190116 256.023027,28.097012 258.713481,25.3443704 C261.431545,22.6683529 262.962122,19.0135667 262.962122,15.1992593 C262.962122,11.3849518 261.431545,7.73016566 258.713481,5.05414815 C256.026623,2.29131193 252.322011,0.754696894 248.468444,0.804666667" id="Shape" fill="#FEDB00" fill-rule="nonzero"></path>
        <path d="M281.244148,25.1287407 L272.150889,25.1287407 L272.150889,17.4239259 L280.681407,17.4239259 C281.921383,17.4297908 282.93371,16.4339052 282.948148,15.194 C282.939838,14.6053575 282.698001,14.0441323 282.27585,13.6338177 C281.8537,13.2235032 281.285826,12.9977193 280.697185,13.0061481 L272.150889,13.0061481 L272.150889,5.25925926 L281.244148,5.25925926 C282.480028,5.2593432 283.485966,4.265129 283.50037,3.02933333 C283.492069,2.43976527 283.249507,1.87773246 282.826214,1.46726642 C282.402921,1.05680039 281.833693,0.831642509 281.244148,0.841481481 L269.899926,0.841481481 C268.688159,0.841172067 267.702578,1.81762112 267.691037,3.02933333 L267.691037,27.3481481 C267.702555,28.5607181 268.687305,29.5384336 269.899926,29.5414865 L281.244148,29.5414865 C281.834184,29.5496879 282.403395,29.3233499 282.826532,28.9120491 C283.249669,28.5007483 283.49206,27.9381855 283.50037,27.3481481 C283.485966,26.1123525 282.480028,25.1181383 281.244148,25.1182222" id="Path" fill="#FEDB00" fill-rule="nonzero"></path>
        <path d="M132.996148,5.25925926 L133.984889,5.25925926 C135.220768,5.2593432 136.226707,4.265129 136.241111,3.02933333 C136.23281,2.43976527 135.990248,1.87773246 135.566955,1.46726642 C135.143662,1.05680039 134.574433,0.831642509 133.984889,0.841481481 L122.582815,0.841481481 C121.370171,0.841172067 120.383069,1.81677476 120.368667,3.02933333 L120.368667,27.3481481 C120.380207,28.562765 121.368143,29.5414865 122.582815,29.5414865 L133.984889,29.5414865 C134.574925,29.5496879 135.144136,29.3233499 135.567273,28.9120491 C135.99041,28.5007483 136.232801,27.9381855 136.241111,27.3481481 C136.226707,26.1123525 135.220768,25.1181383 133.984889,25.1182222 L124.89163,25.1182222 L124.89163,17.4239259 L133.422148,17.4239259 C134.662124,17.4297908 135.674451,16.4339052 135.688889,15.194 C135.680579,14.6053575 135.438742,14.0441323 135.016591,13.6338177 C134.594441,13.2235032 134.026567,12.9977193 133.437926,13.0061481 L124.89163,13.0061481 L124.89163,5.25925926 L132.996148,5.25925926 Z" id="Path" fill="#FEDB00" fill-rule="nonzero"></path>
    </g>
</svg>